<svg width="1048" height="1048" viewBox="0 0 1048 1048" fill="none" xmlns="http://www.w3.org/2000/svg">
<g clip-path="url(#clip0_101_1230)">
<path d="M954.276 292.75C953.805 282.291 961.293 282.136 967.675 280.537C982.95 276.724 998.222 272.805 1013.49 268.78C1021.86 266.583 1024.99 268.59 1024.44 277.18C1023.48 294.884 1021.99 312.606 1020.7 330.321C1019.14 352.067 1017.58 373.813 1015.81 395.566C1014.04 417.53 1012.59 439.483 1009.87 461.27C1007.68 478.48 974.008 825.471 962.37 945.567C959.826 971.824 948.236 996.563 926.874 1012.04C914.907 1020.72 901.459 1028.98 890.192 1032.14C864.381 1039.49 838.338 1040.19 812.667 1030.4C811.169 1029.82 809.871 1028.91 808.479 1028.32C804.407 1026.56 803.573 1023.84 804.686 1019.46C807.827 1006.66 810.543 993.759 813.364 980.857C815.192 972.752 815.828 972.835 823.332 976.171C833.746 980.921 848.493 980.818 861.682 979.233C880.526 976.967 893.53 960.713 895.368 941.823C905.945 833.15 940.797 476.002 943.558 460.305C940.764 461.884 939.001 462.792 937.246 463.911C922.279 473.534 906.498 480.963 888.236 480.86C865.325 480.602 847.157 471.078 834.661 451.728C819.488 428.239 815.937 402.122 818.151 374.851C819.913 352.781 825.62 331.843 837.202 312.922C852.88 287.403 874.258 270.997 905.718 271.273C922.504 271.428 935.971 279.317 948.96 288.598C950.265 289.716 951.785 290.933 954.276 292.75ZM883.5 390.557C884.812 397.918 885.605 405.509 887.651 412.738C893.187 432.226 911.262 439.107 928.188 428.146C933.656 424.57 934.174 424.79 942.374 414.319C945.833 410.601 946.935 405.906 947.07 400.717C947.606 382.816 948.669 364.897 948.783 347.011C948.846 342.777 947.201 337.967 944.655 334.564C941.439 330.126 937.083 326.258 932.436 323.14C922.269 316.088 911.533 316.886 903.686 324.885C900.423 328.173 897.608 332.186 895.433 336.389C886.628 353.203 883.679 371.505 883.5 390.557Z" fill="#1A1A1A"/>
<path fill-rule="evenodd" clip-rule="evenodd" d="M771.392 528.341C770.999 517.879 778.488 517.779 784.881 516.229C800.185 512.529 815.485 508.723 830.782 504.812C839.165 502.678 842.28 504.708 841.672 513.293C840.576 530.989 838.952 548.7 837.539 566.405L800.341 938.768C797.702 965.18 785.883 990.27 764.259 1005.66C752.282 1014.19 738.87 1022.27 727.649 1025.33C701.784 1032.49 675.736 1032.99 650.139 1023.01C648.645 1022.42 647.354 1021.5 645.966 1020.91C641.907 1019.11 641.094 1016.39 642.24 1012.02C645.476 999.234 648.288 979.356 651.205 966.476C653.093 958.385 653.728 958.473 661.207 961.864C670.075 965.989 682.132 967.599 693.688 968.008C715.218 968.771 731.772 951.192 733.987 929.764C741.266 859.324 756.841 709.902 759.427 695.812C756.621 697.37 754.852 698.265 753.089 699.371C738.051 708.882 722.215 716.193 703.955 715.954C681.046 715.526 662.95 705.867 650.598 686.425C635.6 662.823 632.244 636.681 634.66 609.427C636.587 587.371 642.449 566.476 654.171 547.641C670.039 522.24 691.538 505.993 722.995 506.504C739.779 506.783 753.188 514.772 766.107 524.149C767.404 525.277 768.915 526.505 771.392 528.341ZM703.877 647.83C701.884 640.586 701.148 632.989 699.89 625.619C700.211 606.569 703.296 588.289 712.227 571.541C714.433 567.354 717.277 563.362 720.564 560.098C728.471 552.159 739.212 551.44 749.326 558.568C753.95 561.72 758.277 565.621 761.46 570.082C763.981 573.504 768.095 576.766 768 581C767.753 598.885 766.117 616.749 764 636C763.826 641.188 762.072 646.126 758.586 649.818C750.308 660.228 749.792 660.003 744.297 663.54C727.29 674.374 709.267 667.358 703.877 647.83Z" fill="#1A1A1A"/>
<path d="M344.652 225.573C355.16 221.034 364.407 216.602 373.97 212.908C388.891 207.103 404.338 203.62 420.625 204.465C446.265 205.837 460.766 220.823 466.02 244.887C469.908 263.145 467.176 281.298 465.389 299.451C463.078 323.936 454.766 411.422 452.664 435.907C452.139 442.029 452.139 448.15 452.244 454.271C452.349 459.865 447.936 460.182 444.468 461.132C433.75 464.298 422.927 467.147 412.103 470.103C406.219 471.791 400.334 473.585 394.45 475.274C386.884 477.385 383.627 474.957 384.257 467.147C386.359 443.928 388.986 420.709 390.877 397.385C392.558 377.438 399.714 294.491 400.765 274.543C400.975 271.272 399.925 267.894 399.084 264.728C396.457 255.546 390.783 250.902 381.43 251.747C365.143 253.119 351.062 259.346 342.866 274.332C339.924 279.82 338.978 286.681 338.348 293.013C335.405 321.615 327.253 415.322 325.572 444.029C324.941 453.738 322.209 458.066 312.962 460.704C297.41 465.137 282.174 471.153 266.832 476.43C265.151 476.957 263.469 477.485 261.788 477.591C256.324 478.118 253.802 476.113 254.012 470.519C254.643 458.91 255.483 447.406 256.324 435.797C257.9 414.583 259.581 393.475 261.263 372.261C262.839 352.314 264.52 332.367 266.096 312.419C267.673 292.156 269.039 271.786 270.51 251.417C284.695 58.5941 285.536 43.2907 287.112 28.0928C287.322 26.0875 290.055 23.2379 292.156 22.7102C305.817 19.0163 319.582 15.8501 333.348 12.3673C339.442 10.8897 345.537 9.09549 351.526 7.61792C358.777 5.71819 362.034 8.14562 361.404 15.639C359.513 37.697 362.516 -5.35052 347.49 194.333C346.544 204.676 345.598 214.702 344.652 225.573Z" fill="#1A1A1A"/>
<path d="M220.435 471.676L222.77 449.083C223.563 441.411 224.471 433.646 225.159 425.964C225.651 420.173 224.445 419.518 218.836 421.381C200.182 426.887 176.426 437.9 151.427 437.9C52.822 437.9 78.7048 266.612 174.73 289.495C182.236 291.284 204.95 296.721 229.776 313.096C235.244 315.679 237.625 314.225 238.034 308.214L241.519 257.062C241.718 254.155 240.32 251.37 237.871 249.792L226.731 242.615C200.196 225.939 161.273 223.424 126.683 231.32C99.3835 237.526 76.5782 251.631 58.0927 272.236C36.8429 295.955 25.5437 324.1 22.0862 355.498C20.3268 372.522 21.2271 389.502 25.6604 406.21C35.4078 443.434 56.8764 471.036 92.2802 487.121C113.577 496.863 136.34 498.578 159.332 498.087C173.482 497.85 200.499 485.759 213.772 480.652C218.203 478.88 219.979 476.089 220.435 471.676Z" fill="#1A1A1A"/>
<path d="M686.387 260C685.009 269.286 683.632 277.939 682.361 286.486C692.848 281.949 702.806 277.095 713.187 273.296C730.56 266.859 748.675 263.904 767.213 266.015C788.823 268.442 800.263 279.099 805.242 300.309C808.95 316.243 808.314 332.388 806.831 348.533C803.759 383.355 801.5 403 797.827 453C797.933 457.326 795.391 458.381 792.213 459.331C778.336 463.235 764.458 467.139 750.475 471.044C746.238 472.205 742.107 473.682 737.764 474.632C731.09 476.003 728.23 473.576 728.865 466.823C730.666 447.09 732.891 427.358 734.797 407.52C736.81 386.732 738.717 365.838 740.306 345.051C740.73 339.458 740.2 333.76 739.564 328.273C738.505 318.987 732.573 313.394 723.251 313.605C706.831 313.922 692.848 320.147 682.997 333.338C679.607 337.875 677.912 344.206 677.276 349.905C673.887 381.35 671.026 412.796 667.954 444.347C667.848 445.719 667.637 447.196 667.848 448.568C668.378 451.944 666.789 453.844 663.717 454.899C645.179 461.125 626.747 467.456 608.209 473.682C606.408 474.315 604.395 474.632 602.488 474.843C596.874 475.265 594.544 473.049 595.073 467.456C597.086 444.347 599.099 421.237 601.111 398.128C603.76 367.843 606.514 337.559 609.268 307.274C610.01 299.043 610.857 290.812 611.493 282.582C611.916 277.728 614.141 275.406 619.226 274.351C640.2 269.919 661.175 265.065 682.149 260.317C683.103 260.106 684.162 260.211 686.387 260Z" fill="#1A1A1A"/>
<path d="M505.119 679.076C507.452 681.248 502 701.5 500.684 709.324C503.535 707.841 505.753 706.676 507.971 705.511C529.303 694.179 551.796 687.402 576.085 687.507C582.738 687.507 589.497 688.249 595.833 690.049C614.208 695.344 621.073 710.065 624.241 727.222C627.514 744.802 625.508 762.382 623.924 779.962C620.967 811.839 604.352 993.994 604.986 1026.19C605.091 1030.21 602.662 1031.38 599.705 1032.23C585.871 1036.14 572.037 1040.06 558.097 1043.98C553.873 1045.15 549.755 1046.63 545.425 1047.58C538.455 1049.06 535.604 1046.63 536.237 1039.64C538.032 1019.94 550.951 849.964 552.852 830.266C554.859 809.403 556.76 788.434 558.449 767.571C558.872 761.852 558.344 755.921 557.604 750.203C556.443 740.883 550.529 735.482 541.236 735.694C524.867 736.117 510.927 742.366 501.212 755.71C497.938 760.264 496.248 766.724 495.72 772.443C492.341 803.79 478.683 985.627 475.726 1017.08C475.62 1018.67 475.409 1020.26 475.62 1021.85C476.043 1025.34 474.248 1027.04 471.291 1027.99C453.127 1034.13 435.068 1040.38 416.905 1046.52C414.898 1047.16 412.892 1047.69 410.779 1047.9C404.971 1048.53 402.542 1046.2 403.07 1040.27C406.239 1004.48 420.214 818.193 423.382 782.397C425.599 757.298 427.817 732.199 430.035 706.994C430.774 698.416 431.302 697.78 439.75 695.98C460.026 691.532 475 686.525 500.684 679.5C501.845 679.182 504.5 678.5 505.119 679.076Z" fill="#1A1A1A"/>
<path d="M282.719 1010.9C273.982 1015.77 266.192 1020.32 258.087 1024.44C239.35 1034.07 219.771 1037.99 199.034 1032.49C177.982 1026.88 167.034 1013.65 163.982 991.953C161.666 974.913 163.982 958.192 165.455 941.364C167.982 912.366 196.508 622.473 199.034 593.475C200.298 579.716 200.192 580.034 213.666 577.282C230.613 573.895 247.561 569.874 264.508 566.169C266.298 565.746 268.192 565.64 270.613 565.323C270.613 567.969 270.824 569.979 270.613 571.99C267.35 603 238.192 895.009 235.245 926.018C233.876 940.412 232.824 954.805 232.719 969.198C232.613 983.274 240.824 989.307 254.613 986.132C270.508 982.533 287.14 970.892 288.508 947.185C290.298 914.271 324.263 581.833 326.79 548.918C327.316 541.828 328.263 541.087 335.526 539.499C356.053 534.843 376.474 530.186 397 525.529C397.842 525.318 398.684 525.318 400.579 525C400.053 532.303 399.526 539.288 398.895 546.167C395.526 581.939 361.14 917.34 357.771 953.112C356.087 970.998 354.298 988.883 352.613 1006.77C352.192 1011.11 350.298 1013.65 345.876 1015.02C325.666 1021.27 305.455 1027.72 285.35 1034.07C280.719 1035.56 279.561 1034.82 280.192 1029.84C280.719 1023.91 281.666 1017.88 282.719 1010.9Z" fill="#1A1A1A"/>
<path d="M33.5859 1036.96C29.9076 1036.53 26.2229 1036.2 22.5509 1035.66C17.7252 1034.95 15.1476 1032.05 14.8052 1027.16C13.8755 1014.4 13.0574 1001.55 11.9167 988.778C11.5428 984.417 13.5546 982.632 17.3465 981.166C23.7388 978.691 30.0383 975.999 35.861 972.432C45.9669 966.263 59.2868 956.951 60.8375 945.19C67.4214 895.314 93.4258 611.988 100.115 562.117C100.735 557.074 101.565 552.044 102.184 547.001C102.722 543.329 104.33 541.203 108.5 540.5C128.392 537.034 148.298 533.357 168.203 529.68C177.622 527.916 180.007 530.493 178.484 540.033C173.869 569.39 150.045 832.209 145.43 861.566C140.353 893.329 136.53 925.38 129.568 956.819C123.03 986.484 109.187 1012.64 81.4466 1028.76C68.9513 1035.95 47.6051 1037.9 33.5859 1036.96Z" fill="#1A1A1A"/>
<path d="M504.971 253.579C505.287 249.888 506.027 246.302 507.083 242.821C524.298 188.816 558.94 139.769 605.2 104.118C653.783 66.6736 713.14 46 772.073 46C822.663 46 870.191 60.8723 909.374 87.8745C933.666 104.54 954.789 125.846 971.476 151.055C972.321 152.321 972.849 153.798 972.955 155.169C973.272 158.333 971.899 161.603 969.153 163.607C968.519 164.135 967.78 164.557 967.146 164.873H967.041C950.987 170.674 934.828 176.265 918.563 181.855C912.437 183.964 905.678 182.066 901.559 177.108L901.453 177.003C870.402 139.558 823.614 117.725 772.073 117.725C728.876 117.725 685.257 133.019 649.031 160.865C615.762 186.496 591.787 213.076 578.585 250.099C576.789 255.162 575.416 260.33 574.466 265.604C574.149 267.397 573.832 269.296 573.621 271.194C572.776 280.16 571.931 289.231 571.086 298.407C568.763 323.616 548.012 559.1 545.689 584.309C544.632 596.228 543.682 614.147 542.098 625.96C541.781 628.386 538.929 631.656 536.5 632.5C516.5 637.5 499 642 476.404 647.49C470.701 648.876 470.173 648.65 470.701 642.954C473.447 612.05 494.62 370.765 497.366 339.754C499.478 315.6 501.591 291.551 503.703 267.397C504.02 262.756 504.654 258.22 504.971 253.579Z" fill="#1A1A1A"/>
<rect width="132.86" height="77" rx="6" transform="matrix(0.983255 -0.182236 -0.122389 0.992482 94.4241 97.2118)" fill="#1A1A1A"/>
</g>
<defs>
<clipPath id="clip0_101_1230">
<rect width="1048" height="1048" fill="white"/>
</clipPath>
</defs>
</svg>
